<svg fill="#000000" xmlns="http://www.w3.org/2000/svg"  viewBox="0 0 50 50" width="50px" height="50px"><path d="M 28.875 0 C 28.855469 0.0078125 28.832031 0.0195313 28.8125 0.03125 L 0.8125 5.34375 C 0.335938 5.433594 -0.0078125 5.855469 0 6.34375 L 0 43.65625 C -0.0078125 44.144531 0.335938 44.566406 0.8125 44.65625 L 28.8125 49.96875 C 29.101563 50.023438 29.402344 49.949219 29.632813 49.761719 C 29.859375 49.574219 29.996094 49.296875 30 49 L 30 46 L 48 46 C 49.09375 46 50 45.09375 50 44 L 50 33 C 50 32.640625 49.890625 32.292969 49.71875 32 C 49.890625 31.707031 50 31.359375 50 31 L 50 20 C 50 19.640625 49.890625 19.292969 49.71875 19 C 49.890625 18.707031 50 18.359375 50 18 L 50 7 C 50 5.90625 49.09375 5 48 5 L 30 5 L 30 1 C 30.003906 0.710938 29.878906 0.4375 29.664063 0.246094 C 29.449219 0.0546875 29.160156 -0.0351563 28.875 0 Z M 28 2.1875 L 28 5.6875 C 27.941406 5.882813 27.941406 6.085938 28 6.28125 L 28 44.8125 C 27.972656 44.945313 27.972656 45.085938 28 45.21875 L 28 47.8125 L 2 42.84375 L 2 7.15625 Z M 30 7 L 48 7 L 48 18 L 44 18 C 43.96875 18 43.9375 18 43.90625 18 C 43.566406 18.019531 43.261719 18.207031 43.09375 18.5 C 43.09375 18.511719 43.09375 18.519531 43.09375 18.53125 C 42.964844 18.757813 42.933594 19.027344 43 19.28125 L 43 31.6875 C 42.941406 31.882813 42.941406 32.085938 43 32.28125 L 43 44 L 30 44 L 30 37 L 38 37 L 38 35 L 30 35 L 30 32 L 38 32 L 38 30 L 30 30 L 30 27 L 38 27 L 38 25 L 30 25 L 30 22 L 38 22 L 38 20 L 30 20 L 30 17 L 38 17 L 38 15 L 30 15 Z M 6.53125 15.6875 L 6.53125 34.25 L 10.03125 34.25 L 10.03125 24.03125 C 10.03125 22.683594 10 21.6875 9.9375 21.03125 L 10 21.03125 C 10.152344 21.378906 10.414063 21.910156 10.8125 22.59375 L 17.5625 34.25 L 21.3125 34.25 L 21.3125 15.6875 L 17.8125 15.6875 L 17.8125 25.9375 C 17.8125 27.207031 17.84375 28.066406 17.90625 28.5 L 17.875 28.5 C 17.625 28 17.328125 27.507813 17.03125 27 L 10.53125 15.6875 Z M 45 20 L 48 20 L 48 31 L 45 31 Z M 45 33 L 48 33 L 48 44 L 45 44 Z"/></svg>